<svg width="27" height="29" viewBox="0 0 27 29" fill="none" xmlns="http://www.w3.org/2000/svg">
<path d="M5.31819 18.75C5.96936 19.7669 7.41345 20.1162 8.54361 19.5303C8.54439 19.5299 8.54513 19.5295 8.5459 19.5291L8.89621 19.3471C9.5575 19.8562 10.3176 20.2509 11.1383 20.5116V20.875C11.1383 22.0486 12.1957 23 13.5 23C14.8043 23 15.8617 22.0486 15.8617 20.875V20.5116C16.6825 20.2505 17.4427 19.8553 18.1038 19.3457L18.4557 19.5284C19.5861 20.1152 21.0312 19.7664 21.6834 18.7493C22.3356 17.7322 21.9479 16.4319 20.8174 15.8451L20.4679 15.6638C20.6252 14.8934 20.6252 14.1037 20.4679 13.3333L20.8174 13.152C21.9478 12.5652 22.3356 11.265 21.6834 10.2478C21.0312 9.23073 19.5861 8.88187 18.4557 9.46866L18.1054 9.65072C17.4434 9.14228 16.6828 8.74822 15.8617 8.48837V8.125C15.8617 6.9514 14.8043 6 13.5 6C12.1957 6 11.1383 6.9514 11.1383 8.125V8.48837C10.3175 8.74945 9.55735 9.1447 8.89621 9.6543L8.54431 9.47086C7.41386 8.88402 5.96877 9.23289 5.3166 10.25C4.66443 11.2671 5.05213 12.5674 6.18258 13.1542L6.53212 13.3355C6.37477 14.1058 6.37477 14.8955 6.53212 15.6659L6.18258 15.8472C5.05526 16.4356 4.66883 17.7333 5.31819 18.75ZM13.5 11.6667C15.2391 11.6667 16.649 12.9352 16.649 14.5C16.649 16.0648 15.2391 17.3333 13.5 17.3333C11.7609 17.3333 10.351 16.0648 10.351 14.5C10.351 12.9352 11.7609 11.6667 13.5 11.6667Z" fill="#242424"/>
</svg>
