<svg width="37" height="114" viewBox="0 0 37 114" fill="none" xmlns="http://www.w3.org/2000/svg">
<path d="M36.1849 5.54726C36.3783 4.7421 35.8819 3.93181 35.0762 3.73741L21.9467 0.569487C21.141 0.375089 20.3312 0.870202 20.1378 1.67535C19.9444 2.4805 20.4408 3.2908 21.2465 3.4852L32.9172 6.30113L30.1164 17.964C29.923 18.7691 30.4194 19.5794 31.2251 19.7738C32.0308 19.9682 32.8407 19.4731 33.034 18.668L36.1849 5.54726ZM34.7261 5.19526L33.9421 3.91551C14.7886 15.6248 -1.89125 39.782 1.24964 65.7904L2.73908 65.6127L4.22851 65.435C1.2659 40.9028 17.0583 17.7553 35.5101 6.47502L34.7261 5.19526ZM2.73908 65.6127L1.24964 65.7904C2.8259 78.8427 9.53317 89.2873 16.4913 97.2503C19.9735 101.235 23.538 104.621 26.5801 107.411C29.6722 110.247 32.1076 112.368 33.5128 113.957L34.6362 112.965L35.7596 111.972C34.2161 110.227 31.5716 107.921 28.6069 105.202C25.5923 102.437 22.1232 99.1393 18.7498 95.2787C11.9966 87.5503 5.704 77.6529 4.22851 65.435L2.73908 65.6127Z" fill="#424242"/>
</svg>
