<svg width="96" height="95" viewBox="0 0 96 95" fill="none" xmlns="http://www.w3.org/2000/svg">
<path d="M47.6172 0C35.0194 0 22.9376 5.00445 14.0296 13.9124C5.12164 22.8204 0.117188 34.9022 0.117188 47.5C0.117188 60.0978 5.12164 72.1796 14.0296 81.0876C22.9376 89.9956 35.0194 95 47.6172 95C60.215 95 72.2968 89.9956 81.2048 81.0876C90.1127 72.1796 95.1172 60.0978 95.1172 47.5C95.1172 34.9022 90.1127 22.8204 81.2048 13.9124C72.2968 5.00445 60.215 0 47.6172 0ZM47.6172 9.5C52.862 9.5 57.1172 13.7592 57.1172 19C57.116 21.5181 56.1151 23.9328 54.3345 25.7133C53.643 26.4065 52.8486 26.9887 51.9793 27.4392L63.7672 75.996L47.6172 85.5079L31.4672 75.996L43.2551 27.4392C42.3886 26.988 41.5969 26.4059 40.9078 25.7133C39.1281 23.9338 38.1273 21.5207 38.1251 19.004C38.1241 16.4851 39.1234 14.0689 40.9034 12.2867C42.6834 10.5045 45.0983 9.5021 47.6172 9.5Z" fill="#F7F7F7"/>
</svg>
