<svg width="300" height="139" viewBox="0 0 300 139" fill="none" xmlns="http://www.w3.org/2000/svg">
<path d="M293.688 138.437C294.481 138.674 295.317 138.223 295.554 137.43L299.421 124.495C299.659 123.702 299.208 122.866 298.414 122.629C297.62 122.391 296.784 122.842 296.547 123.636L293.11 135.133L281.613 131.696C280.819 131.459 279.983 131.91 279.746 132.703C279.508 133.497 279.96 134.333 280.753 134.57L293.688 138.437ZM1.24533 8.7794C0.571211 9.26091 0.415074 10.1977 0.896587 10.8719L8.7433 21.8573C9.22482 22.5314 10.1616 22.6875 10.8358 22.206C11.5099 21.7245 11.666 20.7877 11.1845 20.1135L4.20965 10.3487L13.9744 3.37388C14.6486 2.89237 14.8047 1.95555 14.3232 1.28143C13.8417 0.607308 12.9049 0.451171 12.2307 0.932684L1.24533 8.7794ZM294.117 137L295.437 136.288C278.353 104.631 230.628 36.6087 140.316 24.5133L140.117 26L139.918 27.4867C228.806 39.3913 275.882 106.369 292.797 137.712L294.117 137ZM140.117 26L140.316 24.5133C95.5007 18.5112 62.9863 14.8428 40.6733 12.5081C18.2895 10.166 6.30471 9.17723 2.36379 8.52041L2.11719 10L1.87059 11.4796C5.92967 12.1561 18.1448 13.1673 40.3611 15.4919C62.648 17.8238 95.1336 21.4888 139.918 27.4867L140.117 26Z" fill="#37465A"/>
</svg>
