<svg width="36" height="114" viewBox="0 0 36 114" fill="none" xmlns="http://www.w3.org/2000/svg">
<path d="M0.627803 108.453C0.434449 109.258 0.930845 110.068 1.73654 110.263L14.866 113.431C15.6717 113.625 16.4816 113.13 16.6749 112.325C16.8683 111.52 16.3719 110.709 15.5662 110.515L3.89556 107.699L6.69635 96.0361C6.8897 95.231 6.39331 94.4207 5.58762 94.2263C4.78193 94.0319 3.97204 94.527 3.77869 95.3322L0.627803 108.453ZM2.08663 108.805L2.87063 110.085C22.0242 98.3753 38.704 74.2181 35.5631 48.2097L34.0737 48.3874L32.5842 48.5651C35.5469 73.0973 19.7544 96.2449 1.30264 107.525L2.08663 108.805ZM34.0737 48.3874L35.5631 48.2097C33.9869 35.1573 27.2796 24.7127 20.3215 16.7498C16.8392 12.7646 13.2748 9.37924 10.2327 6.58906C7.14058 3.75302 4.70512 1.6316 3.2999 0.0426796L2.17653 1.03517L1.05315 2.02766C2.5966 3.77289 5.24113 6.07878 8.20581 8.79795C11.2205 11.563 14.6895 14.8607 18.0629 18.7213C24.8161 26.4498 31.1087 36.3471 32.5842 48.5651L34.0737 48.3874Z" fill="#424242"/>
</svg>
