<svg width="23" height="36" viewBox="0 0 23 36" fill="none" xmlns="http://www.w3.org/2000/svg">
<path d="M18.4505 11.7H22.1172C22.1172 6.5934 17.0664 4.2642 12.9505 3.7278V0H9.28385V3.7278C5.16802 4.2642 0.117188 6.5934 0.117188 11.7C0.117188 16.5708 5.00485 19.1034 9.28385 19.674V28.62C6.62919 28.1682 3.78385 26.7768 3.78385 24.3H0.117188C0.117188 28.9602 4.56302 31.7142 9.28385 32.2848V36H12.9505V32.274C17.0664 31.7376 22.1172 29.4066 22.1172 24.3C22.1172 19.1934 17.0664 16.8642 12.9505 16.3278V7.38C15.3889 7.8102 18.4505 9.0738 18.4505 11.7ZM3.78385 11.7C3.78385 9.0738 6.84552 7.8102 9.28385 7.38V16.0182C6.77035 15.5628 3.78385 14.2146 3.78385 11.7ZM18.4505 24.3C18.4505 26.9262 15.3889 28.1898 12.9505 28.62V19.98C15.3889 20.4102 18.4505 21.6738 18.4505 24.3Z" fill="#424242"/>
</svg>
