<svg width="31" height="73" viewBox="0 0 31 73" fill="none" xmlns="http://www.w3.org/2000/svg">
<path d="M7.61719 73V47.45H0.117188V25.55C0.117188 23.5425 0.852188 21.8246 2.32219 20.3962C3.79219 18.9678 5.55719 18.2525 7.61719 18.25H22.6172C24.6797 18.25 26.4459 18.9654 27.9159 20.3962C29.3859 21.827 30.1197 23.5449 30.1172 25.55V47.45H22.6172V73H7.61719ZM15.1172 14.6C13.0547 14.6 11.2897 13.8858 9.82219 12.4575C8.35469 11.0291 7.61969 9.30995 7.61719 7.30002C7.61469 5.29009 8.34969 3.57216 9.82219 2.14622C11.2947 0.720291 13.0597 0.00489133 15.1172 2.46621e-05C17.1747 -0.004842 18.9409 0.710558 20.4159 2.14622C21.8909 3.58189 22.6247 5.29982 22.6172 7.30002C22.6097 9.30022 21.8759 11.0194 20.4159 12.4575C18.9559 13.8956 17.1897 14.6098 15.1172 14.6Z" fill="#424242"/>
</svg>
